# xmcd CD database file
#
# Track frame offsets:
#	150
#	14845
#	35280
#	51250
#	65825
#	80350
#	95812
#	113590
#	132235
#	134897
#	151390
#	162675
#	175895
#
# Disc length: 2565 seconds
#
# Revision: 0
# Processed by: cddbd v1.4PL0 Copyright (c) Steve Scherf et al.
# Submitted via: CD2WAV32(EN) R3.19
#
DISCID=bf0a030d
DTITLE=NA LEO - Island Breeze (Best Of NA LEO)
DYEAR=1900
DGENRE=
TTITLE0=North Shore Serenade
TTITLE1=LoveIs Starting To Shine
TTITLE2=Right Before My Eyes
TTITLE3=Colorblind
TTITLE4=Nani Hanalei
TTITLE5=Playing With My Mind
TTITLE6=For The Sake Of The Children
TTITLE7=Sitting In Limbo
TTITLE8=Java Jive
TTITLE9=Sweet Baby
TTITLE10=Local Boys
TTITLE11=Rum N' Cocacola
TTITLE12=Friends
EXTD=
EXTT0=
EXTT1=
EXTT2=
EXTT3=
EXTT4=
EXTT5=
EXTT6=
EXTT7=
EXTT8=
EXTT9=
EXTT10=
EXTT11=
EXTT12=
PLAYORDER=
